<?xml version="1.0" encoding="utf-8"?>
<!-- Generator: Adobe Illustrator 21.1.0, SVG Export Plug-In . SVG Version: 6.00 Build 0)  -->
<svg version="1.1" id="Layer_1" xmlns="http://www.w3.org/2000/svg" xmlns:xlink="http://www.w3.org/1999/xlink" x="0px" y="0px"
	 viewBox="0 0 200 300" style="enable-background:new 0 0 200 300;" xml:space="preserve">
<style type="text/css">
	.st0{fill:#AAC68E;}
	.st1{fill:#FEFEFE;}
	.st2{fill:#F294B8;}
	.st3{fill:#F293B7;}
	.st4{fill:#F191B6;}
	.st5{fill:#F3A1C1;}
	.st6{fill:#F3A2C2;}
	.st7{fill:#F39DBE;}
	.st8{fill:#F39CBD;}
	.st9{fill:#F5B1CB;}
	.st10{fill:#F5B2CC;}
	.st11{fill:#F7BBD2;}
</style>
<g>
	<path class="st0" d="M196.4,135l1.3,4.3c0-0.1,0-0.2,0-0.3c-0.9-7.8-0.9-15.8-4-23.3L167.3,77c-13.8-12.1-29.1-21.1-47.9-22.9
		c-2.6-0.2-5.2,0-7.7-0.7l3.8,1.3c-1.8-0.3-4,0.3-5.2-1.8c-1,0-2,0-2.9,0c-0.4,0.9-1.1,0.9-1.9,0.8c-1,0-2,0-2.9,0c-1.3,0-2.7,0-4,0
		c0,0,0,0,0,0c-1.1,0.1-2.2,0.3-2.9-0.8c-1.6,0-3.3,0-4.9,0c-1.8,1-3.7,0.9-5.7,1c-4.8,0.3-9.7,0.6-14.4,2
		c-20,6.2-36.3,17.7-49,34.3c-10.5,13.8-17.9,28.9-17.9,46.8c0,1.3-0.2,2.6-0.9,3.7c0,1.3,0,2.6,0,3.9c0.9,0.4,0.9,1.1,0.8,1.9
		c0,0.7,0,1.3,0,2c0,1.3,0,2.6,0,4c0,0,0,0,0,0c0,0.7,0,1.3,0,2c0,0,0,0,0,0c0.1,0.8,0.1,1.5-0.8,1.9c0,1.3,0,2.6,0,3.9
		c0.7,2,0.8,4.1,1,6.2c0.4,5,0.8,10,2.3,14.9c5.4,17.2,14.9,31.8,28.4,43.5c13.3,11.5,28,20.4,46.1,22.2c2.7,0.3,5.6-0.3,8.1,1.2
		c2.3,0,4.6,0,6.8,0c3.3-1.5,6.5-1.5,9.8,0c2,0,3.9,0,5.9,0c2-0.7,4.1-0.8,6.2-1c5-0.4,10-0.6,14.9-2.3
		c19.8-6.9,36.1-18.6,48.4-35.5c8.5-11.8,15.3-24.5,16.4-39.4c0.2-2.6-0.3-5.2,1.1-7.6c0-2.3,0-4.6,0-6.8c-1.5-3.3-1.5-6.5,0-9.8
		c0-1.6,0-3.3,0-4.9C196.4,139.2,196.7,136.9,196.4,135z M150.7,87c2.3,1.7,1.7,2.9,0.2,4.6c-10.4,11.6-22.8,20.1-37.1,26.2
		c-2.3,1-3.2,0.1-4.2-1.7c-8.2-15.1-17.5-29.5-28-44.3C107.5,66.4,130.2,71.5,150.7,87z M22.9,128c6.7-21.7,20-37.9,39.8-48.9
		c2.4-1.3,3.6-1,5.1,1.2c10,13.8,19.3,28.1,27.8,43.6c-13.7,4.1-27.4,5.9-41.2,6.9c-9.4,0.7-18.8,0.7-28.2,1.2
		C23.1,132.2,21.8,131.6,22.9,128z M36.6,200.1c-10.4-13.8-16-29.3-16.9-47.3c-1.2-4,1.2-5,5.5-5c25.4,0,50.7-1.7,75.4-8.5
		c2.2-0.6,3.1,0,4.2,1.9c4.8,8.7,4.8,8.7-4.5,12.3C76,162.7,57.4,179,42.5,199.9C40.2,203.1,39.2,203.5,36.6,200.1z M127.4,227.1
		c-8.8,2.8-17.6,4.5-29.1,4.6c-14.6-0.2-30-5-43.9-14.6c-1.7-1.1-3.1-1.9-1.3-4.5c14.5-21,32.6-37.4,57.3-45.7
		c3.8-1.3,5.3-0.8,6.7,3.1c6,16.7,10.8,33.7,13.8,51.2C131.4,224.4,130.8,226,127.4,227.1z M180,166.6
		c-4.5,21.1-15.5,37.7-33.3,50.6c-1.8-7.8-3.3-15.1-5.1-22.3c-2.4-9.8-5.5-19.3-9-28.7c-1-2.8-1-4,2.4-4.3
		c14.3-1.3,28.5-0.4,42.6,2.1C179,164.2,180.5,164.3,180,166.6z M178.1,147.8c-16.8-2.8-33.6-3.5-50.5-1.2c-1.8,0.2-2.9-0.2-3.9-2
		c-5.9-10.5-6-10.4,4.5-15.8c12.4-6.4,23.6-14.4,32.9-24.8c2.5-2.8,3.6-3.2,5.9,0.2c8.3,12.3,13.1,25.6,14.4,40.7
		C182,147.3,181.3,148.3,178.1,147.8z"/>
	<path class="st1" d="M110.3,52.9c0.4,0.2,0.9,0.3,1.3,0.5L110.3,52.9z"/>
	<path class="st1" d="M115.5,54.7l-3.8-1.3c-0.5-0.1-0.9-0.3-1.3-0.5C111.5,55.1,113.7,54.5,115.5,54.7z"/>
	<path class="st1" d="M197.7,139.2c0,0.5,0.1,1.1,0.5,1.5L197.7,139.2z"/>
	<path class="st1" d="M198.2,140.8c-0.4-0.4-0.4-1-0.5-1.5l-1.3-4.3C196.7,136.9,196.4,139.2,198.2,140.8z"/>
	<path class="st2" d="M95.7,248.2c3.3,0,6.5,0,9.8,0C102.2,247.4,98.9,247.4,95.7,248.2z"/>
	<path class="st2" d="M95.7,248.2c3.3-0.8,6.5-0.8,9.8,0C102.2,246.7,98.9,246.7,95.7,248.2z"/>
	<path class="st3" d="M198.2,155.4c0-3.3,0-6.5,0-9.8C197.4,148.9,197.4,152.2,198.2,155.4z"/>
	<path class="st3" d="M198.2,155.4c-0.8-3.3-0.8-6.5,0-9.8C196.7,148.9,196.7,152.2,198.2,155.4z"/>
	<path class="st4" d="M3.4,152.1c0-1.1,0-2.1,0-3.2c0-0.1,0-0.3,0-0.4c-0.2,0-0.3,0-0.5,0c0,1.3,0,2.6,0,3.9c0.2,0,0.3,0,0.5,0
		C3.4,152.4,3.4,152.3,3.4,152.1z"/>
	<path class="st4" d="M3.4,149c0,1.1,0,2.1,0,3.2c0,0.1,0,0.3,0,0.4c0.1,0,0.2,0,0.3,0c0-1.3,0-2.6,0-4c-0.1,0-0.2,0-0.3,0
		C3.4,148.7,3.4,148.8,3.4,149z"/>
	<path class="st4" d="M98.9,53.4c1.1,0,2.2,0,3.4,0c0.1,0,0.2,0,0.3,0c0-0.2,0-0.3,0-0.5c-1.3,0-2.6,0-3.9,0c0,0.2,0,0.3,0,0.5
		C98.7,53.4,98.8,53.4,98.9,53.4z"/>
	<path class="st4" d="M102.3,53.4c-1.1,0-2.2,0-3.4,0c-0.1,0-0.2,0-0.3,0c0,0.1,0,0.2,0,0.3c1.3,0,2.7,0,4,0c0-0.1,0-0.2,0-0.3
		C102.4,53.4,102.4,53.4,102.3,53.4z"/>
	<path class="st5" d="M103,53.4c0.6,0,1.2,0,1.9,0c0.2,0,0.4,0,0.6,0c0-0.2,0-0.3,0-0.5c-1,0-2,0-2.9,0
		C103,53.1,103.2,53.2,103,53.4z"/>
	<path class="st5" d="M104.9,53.4c-0.6,0-1.2,0-1.9,0c-0.1,0.1-0.2,0.2-0.5,0.3c1,0,2,0,2.9,0c0-0.1,0-0.2,0-0.4
		C105.3,53.4,105.1,53.4,104.9,53.4z"/>
	<path class="st5" d="M103,53.4c0.1-0.2-0.1-0.3-0.5-0.5c0,0.2,0,0.3,0,0.5C102.7,53.4,102.9,53.4,103,53.4z"/>
	<path class="st5" d="M103,53.4c-0.2,0-0.3,0-0.5,0c0,0.1,0,0.2,0,0.3C102.8,53.6,103,53.5,103,53.4z"/>
	<path class="st6" d="M98.1,53.4c-0.1-0.2,0.1-0.3,0.5-0.5c-1,0-2,0-2.9,0C96.4,53.6,97.2,53.4,98.1,53.4z"/>
	<path class="st6" d="M98.6,53.7C98.6,53.7,98.6,53.7,98.6,53.7C98.6,53.7,98.6,53.7,98.6,53.7c-0.3-0.1-0.4-0.2-0.5-0.3
		c-0.8,0-1.7,0.2-2.4-0.5C96.4,54.1,97.5,53.8,98.6,53.7z"/>
	<path class="st6" d="M98.1,53.4c0.2,0,0.3,0,0.5,0c0-0.2,0-0.3,0-0.5C98.2,53.1,98,53.2,98.1,53.4z"/>
	<path class="st6" d="M98.1,53.4c0.1,0.1,0.2,0.2,0.5,0.3c0,0,0,0,0,0c0-0.1,0-0.2,0-0.3C98.4,53.4,98.2,53.4,98.1,53.4z"/>
	<path class="st7" d="M3.4,148.1c0-0.3,0-0.7,0-1c0-0.1,0-0.3,0-0.4c-0.2,0-0.3,0-0.5,0c0,0.7,0,1.3,0,2
		C3.1,148.2,3.3,148,3.4,148.1z"/>
	<path class="st7" d="M3.4,147.1c0,0.3,0,0.7,0,1c0.1,0.1,0.2,0.2,0.3,0.5c0-0.7,0-1.3,0-2c-0.1,0-0.2,0-0.3,0
		C3.4,146.8,3.4,146.9,3.4,147.1z"/>
	<path class="st7" d="M3.4,148.1c-0.2-0.1-0.3,0.1-0.5,0.5c0.2,0,0.3,0,0.5,0C3.4,148.4,3.4,148.2,3.4,148.1z"/>
	<path class="st7" d="M3.4,148.1c0,0.2,0,0.3,0,0.5c0.1,0,0.2,0,0.3,0C3.7,148.3,3.5,148.1,3.4,148.1z"/>
	<path class="st8" d="M3.4,154c0-0.3,0-0.7,0-1c-0.2,0.1-0.3-0.1-0.5-0.5c0,0.7,0,1.3,0,2c0.2,0,0.3,0,0.5,0
		C3.4,154.3,3.4,154.2,3.4,154z"/>
	<path class="st8" d="M3.4,153c0,0.3,0,0.7,0,1c0,0.1,0,0.3,0,0.4c0.1,0,0.2,0,0.3,0c0-0.7,0-1.3,0-2c0,0,0,0,0,0v0
		C3.7,152.8,3.5,152.9,3.4,153z"/>
	<path class="st8" d="M3.4,153c0-0.2,0-0.3,0-0.5c-0.2,0-0.3,0-0.5,0C3.1,152.9,3.3,153.1,3.4,153z"/>
	<path class="st8" d="M3.4,153c0.1-0.1,0.2-0.2,0.3-0.5v0c-0.1,0-0.2,0-0.3,0C3.4,152.7,3.4,152.8,3.4,153z"/>
	<path class="st9" d="M2.9,154.4c0,0.7,0,1.3,0,2c0.4-0.4,0.5-0.9,0.5-1.4C3.3,155.1,3.1,154.9,2.9,154.4z"/>
	<path class="st9" d="M3.8,154.5C3.8,154.5,3.8,154.5,3.8,154.5L3.8,154.5c-0.1,0.3-0.2,0.4-0.3,0.5c0,0.5,0,1-0.5,1.4
		C3.8,156,3.8,155.3,3.8,154.5z"/>
	<path class="st9" d="M3.4,155c0-0.2,0-0.3,0-0.5c-0.2,0-0.3,0-0.5,0C3.1,154.9,3.3,155.1,3.4,155z"/>
	<path class="st9" d="M3.4,155c0.1-0.1,0.2-0.2,0.3-0.5v0c-0.1,0-0.2,0-0.3,0C3.4,154.6,3.4,154.8,3.4,155z"/>
	<path class="st10" d="M3.4,146.1c0-0.5,0-1-0.5-1.4c0,0.7,0,1.3,0,2C3.1,146.2,3.3,146,3.4,146.1z"/>
	<path class="st10" d="M3.8,146.6c0.1-0.8,0.1-1.5-0.8-1.9c0.4,0.4,0.5,0.9,0.5,1.4C3.5,146.2,3.6,146.3,3.8,146.6z"/>
	<path class="st10" d="M3.4,146.1c-0.2-0.1-0.3,0.1-0.5,0.5c0.2,0,0.3,0,0.5,0C3.4,146.4,3.4,146.3,3.4,146.1z"/>
	<path class="st10" d="M3.4,146.1c0,0.2,0,0.3,0,0.5c0.1,0,0.2,0,0.3,0C3.6,146.3,3.5,146.2,3.4,146.1z"/>
	<path class="st11" d="M106,53.4c0.5,0,1-0.1,1.4-0.5c-0.7,0-1.3,0-2,0C105.9,53.1,106,53.2,106,53.4z"/>
	<path class="st11" d="M105.5,53.8c0.8,0.1,1.6,0.1,1.9-0.8c-0.4,0.4-0.9,0.5-1.4,0.5C105.9,53.5,105.8,53.6,105.5,53.8z"/>
	<path class="st11" d="M106,53.4c0.1-0.2-0.1-0.3-0.5-0.5c0,0.2,0,0.3,0,0.5C105.6,53.4,105.8,53.4,106,53.4z"/>
	<path class="st11" d="M106,53.4c-0.2,0-0.3,0-0.5,0c0,0.1,0,0.2,0,0.4C105.8,53.6,105.9,53.5,106,53.4z"/>
</g>
<g>
	<path class="st0" d="M100.6,55.5c51.9,0,94.1,42.2,94.1,94.1s-42.2,94.1-94.1,94.1S6.5,201.4,6.5,149.6S48.7,55.5,100.6,55.5
		 M100.6,51C46.1,51,2,95.1,2,149.6s44.1,98.6,98.6,98.6s98.6-44.1,98.6-98.6S155,51,100.6,51L100.6,51z"/>
</g>
<title>dribbble</title>
</svg>
