<?xml version="1.0" encoding="utf-8"?>
<!-- Generator: Adobe Illustrator 21.1.0, SVG Export Plug-In . SVG Version: 6.00 Build 0)  -->
<svg version="1.1" id="Layer_1" xmlns="http://www.w3.org/2000/svg" xmlns:xlink="http://www.w3.org/1999/xlink" x="0px" y="0px"
	 viewBox="0 0 200 300" style="enable-background:new 0 0 200 300;" xml:space="preserve">
<style type="text/css">
	.st0{fill:#FFFFFF;}
</style>
<title>github</title>
<g>
	<path class="st0" d="M197,159.9c-0.8,4.3-1.3,8.7-2.4,12.9c-8.5,33-28.5,56.2-60.1,69.2c-1.4,0.6-2.8,1-4.2,1.3
		c-4.8,0.9-6.8-0.7-6.8-5.6c-0.1-8.5,0-17,0-25.5c0-6.5-1.3-12.6-6.2-18.2c3.4-0.6,6.3-1.2,9.2-1.8c27.3-5.7,43.3-33.8,32.6-59.8
		c-3.6-8.6-7.7-16-5.6-25.6c0.5-2.5-1.1-5.4-1.4-8.1c-0.6-4.9-3.8-6-7.7-4.4c-6,2.4-11.8,5.4-17.8,7.9c-1.8,0.8-4,1.5-5.8,1.1
		c-14.7-3.1-29.4-3.6-44.1,0.2c-1.4,0.4-3.3-0.6-4.9-1.2c-6.3-2.6-12.4-5.6-18.8-8.1c-3.6-1.4-6-0.1-7,4.2
		c-1.5,6.5-2.2,12.8-0.2,19.3c0.4,1.3-0.1,3.2-0.9,4.4c-19.6,28-5.6,63.4,27.9,70.4c2.1,0.4,4.1,0.8,6.4,1.3c-1.1,3.1-2.8,5.9-3.2,9
		c-0.6,4.4-3.2,5.5-6.9,6.2c-10.7,1.9-16.5-0.5-22.4-9.7c-3.3-5.2-7.5-9-13.7-10.1c-1.8-0.3-3.7,0-5.6,0c-0.2,0.4-0.4,0.9-0.6,1.3
		c1.2,1.4,2.4,2.7,3.6,4.1c3.5,4.2,8.2,7.9,10.1,12.7c4,9.7,11,13.7,20.7,14.3c4.2,0.2,8.4,0,13.4,0c0,5.6,0.3,11.8-0.2,17.9
		c-0.1,1.5-2.6,3.6-4.4,4c-2,0.4-4.5-0.5-6.6-1.4c-35-14.7-55.7-40.8-61.7-78.4c-0.2-1.2-0.6-2.5-0.9-3.7c0-6.2,0-12.4,0-18.6
		c0.3-1.2,0.7-2.5,0.9-3.7c5.2-40,38.1-74.8,77.9-82.4c51.2-9.8,100.6,21,114.1,71.3c1.3,4.8,2.1,9.8,3.1,14.8
		C197,147.4,197,153.7,197,159.9z"/>
</g>
</svg>
