<?xml version="1.0" encoding="utf-8"?>
<!-- Generator: Adobe Illustrator 21.1.0, SVG Export Plug-In . SVG Version: 6.00 Build 0)  -->
<svg version="1.1" id="Layer_1" xmlns="http://www.w3.org/2000/svg" xmlns:xlink="http://www.w3.org/1999/xlink" x="0px" y="0px"
	 viewBox="0 0 160.8 160.8" style="enable-background:new 0 0 160.8 160.8;" xml:space="preserve">
<style type="text/css">
	.st0{fill:#AAC68E;}
</style>
<g id="_2744583888992">
	<path class="st0" d="M97.6,123.3H63.2c-1.3,0-2.4-1-2.4-2.4c0-7.2-1.5-13.6-3.6-19.4c-2.2-5.9-5-11.3-7.7-16.3
		C45,76.8,41,69.3,41,61.1v-0.5C41.1,48,46.1,38,53.5,31c7.4-6.9,17.2-10.7,27-10.7c0.1,0,0.2,0,0.2,0h0.1
		c10.3,0.1,20.6,4.4,28,12.1c6.6,6.9,11,16.6,11,28.5c0,8.2-4.1,15.8-8.5,24.2c-5.3,10-11.3,21.2-11.3,35.7
		C100,122.2,98.9,123.3,97.6,123.3z M64.7,131.8c-1.3,0-2.4-1-2.4-2.4c0-1.3,1.1-2.4,2.4-2.4h31.4c1.3,0,2.4,1.1,2.4,2.4
		c0,1.3-1.1,2.4-2.4,2.4H64.7z M75.6,84.3h9.5V81c0-1.3,1-2.4,2.4-2.4c1.3,0,2.4,1,2.4,2.4v37.5h5.4c0.6-14.4,6.5-25.6,11.8-35.5
		c4.2-7.9,8-14.9,8-22c0-10.6-3.8-19.2-9.7-25.3C98.9,29,89.9,25.2,80.8,25.2h-0.3c-8.6,0-17.3,3.3-23.8,9.4
		c-6.5,6.1-10.9,14.9-11,26.1v0.4c0,7,3.8,14.1,8,22c2.8,5.2,5.7,10.7,8,16.9c2.1,5.6,3.6,11.8,3.9,18.6h5.4V81c0-1.3,1-2.4,2.4-2.4
		c1.3,0,2.4,1,2.4,2.4V84.3z M85.2,118.6V89.1h-9.5v29.5H85.2z M67.5,140.4c-1.3,0-2.4-1.1-2.4-2.4c0-1.3,1-2.4,2.4-2.4H93
		c1.3,0,2.4,1.1,2.4,2.4c0,1.3-1,2.4-2.4,2.4H67.5z"/>
</g>
</svg>
