<?xml version="1.0" encoding="utf-8"?>
<!-- Generator: Adobe Illustrator 21.1.0, SVG Export Plug-In . SVG Version: 6.00 Build 0)  -->
<svg version="1.1" id="Layer_1" xmlns="http://www.w3.org/2000/svg" xmlns:xlink="http://www.w3.org/1999/xlink" x="0px" y="0px"
	 viewBox="0 0 200 300" style="enable-background:new 0 0 200 300;" xml:space="preserve">
<style type="text/css">
	.st0{fill:#FFFFFF;}
</style>
<title>linkedin</title>
<path class="st0" d="M71,247c-0.3-1.2-0.8-2.5-0.8-3.7c0-41.1,0-82.3,0-123.4c0-0.5,0.2-0.9,0.3-1.7c14,0,27.9,0,42.4,0
	c0,5.3,0,10.6,0,16.6c1-0.6,1.6-0.7,1.8-1c12.2-17.7,29.6-21.7,49.4-17.6c19.6,4.1,30.2,17.5,34.9,36.3c0.8,3.2,1.4,6.5,2.1,9.7
	c0,28.3,0,56.7,0,85c-14,0-28,0-42,0c-0.3-1.8-0.8-3.5-0.8-5.3c-0.1-21.3,0.2-42.6-0.2-63.9c-0.1-5.9-1.3-11.9-3.1-17.5
	c-2.2-6.8-7.6-10.7-14.9-11.5c-14.9-1.7-26.8,8.5-26.9,23.8c-0.2,24.8-0.1,49.6-0.1,74.4C99,247,85,247,71,247z"/>
<path class="st0" d="M4,247c-0.1-1.3-0.3-2.6-0.3-4c0-40.5,0-80.9,0-121.4c0-1,0.1-2,0.2-3.4c14.1,0,28.1,0,42.4,0
	c0.1,1.5,0.2,3,0.2,4.5c0,40,0,80,0,119.9c0,1.5-0.3,2.9-0.5,4.4C32,247,18,247,4,247z"/>
<path class="st0" d="M27,55c1.6,0.4,3.2,0.8,4.8,1.2c10.5,2.3,17.3,10.7,17.4,21.5c0.1,10.5-6.3,18.8-16.6,21.5
	C18.3,102.7,8.7,97.8,1,83c0-3.3,0-6.7,0-10c2.6-6.8,6.2-12.8,13.5-15.4c2.8-1,5.6-1.7,8.5-2.6C24.3,55,25.7,55,27,55z"/>
<path class="st0" d="M23,55c-2.8,0.8-5.7,1.5-8.5,2.6C7.2,60.2,3.6,66.2,1,73c0-6,0-12,0-18C8.3,55,15.7,55,23,55z"/>
</svg>
