<?xml version="1.0" encoding="utf-8"?>
<!-- Generator: Adobe Illustrator 21.1.0, SVG Export Plug-In . SVG Version: 6.00 Build 0)  -->
<svg version="1.1" id="Layer_1" xmlns="http://www.w3.org/2000/svg" xmlns:xlink="http://www.w3.org/1999/xlink" x="0px" y="0px"
	 viewBox="0 0 964 336" style="enable-background:new 0 0 964 336;" xml:space="preserve">
<style type="text/css">
	.st0{fill:#75925E;}
	.st1{fill:#92B374;}
	.st2{fill:#AAC68E;}
	.st3{fill:#333333;}
	.st4{fill:#637A4B;}
</style>
<g>
	<path class="st3" d="M25.2,157.7c0-46,34.8-77,79.4-77c37,0,56.2,20.3,66,39.9l-33,15.6c-4.9-11.8-17.6-21.6-33-21.6
		c-23.2,0-40.4,18.7-40.4,43.1s17.2,43.1,40.4,43.1c15.4,0,28.1-9.8,33-21.6l33,15.6c-9.6,19.2-29,39.9-66,39.9
		C60,234.7,25.2,203.4,25.2,157.7z"/>
	<path class="st3" d="M175.3,83.2h34.4V232h-34.4V83.2z"/>
	<path class="st3" d="M275,121.6c31.9,0,55.1,23.4,55.1,60v7.4h-76.7c2,10,11.4,19.2,27.4,19.2c9.6,0,20.3-3.8,26.3-9.1l14.5,21.4
		c-10.7,9.6-28.6,14.3-45.1,14.3c-33.2,0-58.9-21.6-58.9-56.7C217.7,146.8,241.3,121.6,275,121.6z M252.9,166.6h44.4
		c-0.9-7.6-6.5-18.5-22.3-18.5C260.1,148.1,254.3,158.8,252.9,166.6z"/>
	<path class="st3" d="M473.5,166.4c0-8.3-4-14.5-14.3-14.5c-9.4,0-16.1,6-19.4,10.5V232h-34.4v-65.6c0-8.3-3.8-14.5-14.3-14.5
		c-9.1,0-15.6,6-19.2,10.5V232h-34.4V124.2H372v13.2c4.7-6.2,18.5-15.8,35.5-15.8c15.4,0,26.1,6.5,30.6,19.2
		c6.2-9.4,20.3-19.2,37.3-19.2c19.9,0,32.3,10.3,32.3,32.3V232h-34.1V166.4z"/>
	<path class="st3" d="M573.2,121.6c31.9,0,55.1,23.4,55.1,60v7.4h-76.7c2,10,11.4,19.2,27.4,19.2c9.6,0,20.3-3.8,26.3-9.1l14.5,21.4
		c-10.7,9.6-28.6,14.3-45.1,14.3c-33.2,0-58.9-21.6-58.9-56.7C515.9,146.8,539.5,121.6,573.2,121.6z M551.1,166.6h44.4
		c-0.9-7.6-6.5-18.5-22.3-18.5C558.3,148.1,552.5,158.8,551.1,166.6z"/>
	<path class="st3" d="M708.8,169.8c0-13.2-6.9-17.8-17.6-17.8c-10.3,0-17,5.6-21,10.5V232h-34.4V124.2h34.4v13.2
		c6.5-7.6,19.2-15.8,37.3-15.8c24.5,0,35.7,14.3,35.7,34.1V232h-34.4V169.8z"/>
	<path class="st3" d="M764.4,203v-48.9h-17.8v-29.9h17.8V94.8h34.1v29.4h21.9v29.9h-21.9v39.3c0,6.2,3.6,10.9,9.6,10.9
		c3.8,0,7.6-1.3,8.7-2.7l6.7,25.9c-4.2,4-12.7,7.1-25.4,7.1C776.2,234.7,764.4,223.7,764.4,203z"/>
	<path class="st3" d="M878.3,121.6c31.9,0,55.1,23.4,55.1,60v7.4h-76.7c2,10,11.4,19.2,27.4,19.2c9.6,0,20.3-3.8,26.3-9.1l14.5,21.4
		c-10.7,9.6-28.6,14.3-45.1,14.3c-33.2,0-58.9-21.6-58.9-56.7C821,146.8,844.6,121.6,878.3,121.6z M856.2,166.6h44.4
		c-0.9-7.6-6.5-18.5-22.3-18.5C863.4,148.1,857.6,158.8,856.2,166.6z"/>
</g>
<rect x="10" y="302.3" width="321" height="18.4"/>
<rect x="747" y="302.3" class="st1" width="207" height="18.5"/>
<rect x="330" y="302.3" class="st4" width="417" height="18.5"/>
<rect x="10" y="18.3" width="321" height="18.4"/>
<rect x="747" y="18.3" class="st1" width="207" height="18.5"/>
<rect x="330" y="18.3" class="st4" width="417" height="18.5"/>
</svg>
